<svg xmlns="http://www.w3.org/2000/svg" width="48" height="48" fill="none">
  <path fill="#fff" fill-rule="evenodd" d="M47.7955 1.44687C47.723.79318 47.207.27683 46.5529.20432 35.4237-1.03165 25.9367 3.42002 18.1981 11.3855c-2.2146 2.2796-4.1355 4.6926-5.7751 7.0213-2.775-.1127-5.85175 1.1426-8.03305 3.3238L.41189 25.7084c-.4501.45-.54167 1.1466-.2234 1.6977.31825.5512.96686.8196 1.58213.6552.92292-.248 2.42266-.5362 3.86343-.6032.52665-.0245.9643-.0168 1.32797.011-.39537.7603-.74913 1.4651-1.03895 2.0425l-.00007.0001-.00027.0006-.00007.0001-.00003.0001c-.35347.7042-.61175 1.2187-.73429 1.4133-.34939.5559-.26845 1.2792.19594 1.7435l2.30179 2.3016c-3.34996 4.5685-3.40526 6.9083-3.39354 7.2397.02453.702.57206 1.3597 1.47886 1.3597.78521 0 3.03719-.3332 7.13681-3.3775l2.4212 2.421c.4677.4676 1.1983.546 1.755.1886.2292-.1474.8073-.4417 1.5819-.836.5053-.2572 1.0942-.557 1.7245-.8863.0264 1.1898-.1351 2.937-.4856 5.3053-.1993 1.3432 1.4338 2.1518 2.3856 1.2004l3.9781-3.9778c2.0513-2.0511 3.2408-5.0976 3.1529-7.9555 2.4534-1.7143 5.0057-3.7365 7.3888-6.0733 7.8902-7.7369 12.2052-17.1515 10.9849-28.13233Zm-2.6903 1.44727c.2245 3.03223-.0151 5.97144-.7127 8.81576-1.7327-.5456-3.4265-1.6175-4.9563-3.14681-1.5353-1.53553-2.6094-3.23621-3.1529-4.97498 2.8434-.68738 5.7847-.92029 8.8219-.69397ZM6.37861 23.7195l-.92804.9283c.98627-.0487 2.01027-.011 2.93135.1923.59623-1.0609 1.2723-2.2105 2.03078-3.4142-1.45176.3633-2.91158 1.1715-4.03409 2.2936Zm1.94758 7.2745.00047-.0009h.00002l.00001-.0001h.00001c.26816-.5341.60767-1.2104 1.13342-2.2037l1.85128 1.8516c-.6888.739-1.3107 1.441-1.87106 2.1064L8.112 31.4194c.06706-.1323.13721-.272.21306-.4231l.00113-.0023Zm9.89141-1.3503c-1.2207.0263-2.2033.2135-3.228 1.2378-4.322 4.3216-6.27697 7.3506-7.15996 9.1747 1.78979-.8702 4.78266-2.8199 9.14896-7.1858 1.0214-1.0214 1.2122-2.0373 1.239-3.2267Zm-1.6463 10.2345-1.4503-1.4506c.6622-.5625 1.3621-1.1861 2.1004-1.8776l1.9707 1.9706c-.8974.4791-1.4326.7513-1.9374 1.0081l-.0003.0001-.0003.0002-.0003.0001c-.2238.1138-.4416.2246-.6825.3491Zm6.5824 2.867 1.1258-1.1261c1.05-1.0495 1.8041-2.4931 2.1396-3.9799-1.1771.7386-2.3004 1.3989-3.3346 1.9812.1289.7668.1604 1.7607.0692 3.1248Zm-1.4012-5.6418-2.5216-2.5217c1.8009-1.9814 1.7989-3.8932 1.7966-6.1019l-.0002-.2405c0-.7768-.6295-1.4063-1.4063-1.4063-.1168 0-.2333-.0003-.3497-.0007-2.0345-.0059-4.0015-.0116-5.9932 1.7973l-2.408-2.4078C17.4455 14.6924 25.046 7.39304 33.5856 4.38718c.676 2.18738 1.9919 4.29493 3.8619 6.16482 1.8612 1.8614 3.959 3.1739 6.137 3.8525-3.0236 8.4921-10.3216 16.0873-21.832 22.6989Zm13.706-24.5629c-2.742-2.74145-7.2035-2.74145-9.9452 0-2.7416 2.7418-2.7416 7.203 0 9.9445 2.7417 2.7414 7.2032 2.7418 9.9452 0 2.7416-2.7415 2.7416-7.2027 0-9.9445Zm-1.989 7.9556c-1.6452 1.645-4.3224 1.645-5.9671 0-1.6452-1.645-1.6452-4.3217 0-5.9667 1.6447-1.6447 4.3216-1.645 5.9671 0 1.6451 1.645 1.6451 4.3217 0 5.9667Z" clip-rule="evenodd"/>
</svg>
