<svg xmlns="http://www.w3.org/2000/svg" width="800" height="800" fill="none" viewBox="0 0 24 24">
  <path fill="#292D32" d="M16.19 2H7.81C4.17 2 2 4.17 2 7.81v8.37C2 19.83 4.17 22 7.81 22h8.37c3.64 0 5.81-2.17 5.81-5.81V7.81C22 4.17 19.83 2 16.19 2Z" opacity=".4"/>
  <path fill="#292D32" d="m13.0594 12.0001 2.3-2.29999c.29-.29.29-.77 0-1.06-.29-.29-.77-.29-1.06 0l-2.3 2.29999-2.30003-2.29999c-.29-.29-.77-.29-1.05999 0-.29.29-.29.77 0 1.06l2.30002 2.29999-2.30002 2.3c-.29.29-.29.77 0 1.06.15.15.33999.22.52999.22.19 0 .38-.07.53-.22l2.30003-2.3 2.3 2.3c.15.15.34.22.53.22s.38-.07.53-.22c.29-.29.29-.77 0-1.06l-2.3-2.3Z"/>
</svg>
