<svg style="display: none" xmlns="http://www.w3.org/2000/svg">
    <symbol id="logo" viewBox="0 0 80 29">
        <g>
            <path
                d="M21.52 26.8c-1.6267 1.0133-3.9733 1.52-7.04 1.52-3.9467 0-7.25333-1.2667-9.92-3.8C1.92 21.96.6 18.6533.6 14.6c0-4.1067 1.28-7.45333 3.84-10.04C7.02667 1.97333 10.3867.68 14.52.68c3.04 0 5.3733.50667 7 1.52v5.92c-2-1.22667-4.2267-1.84-6.68-1.84-2.16 0-3.9733.76-5.44 2.28-1.46667 1.4933-2.2 3.5067-2.2 6.04 0 2.48.73333 4.4533 2.2 5.92 1.4667 1.44 3.36 2.16 5.68 2.16 2.5067 0 4.6533-.64 6.44-1.92v6.04Zm9.1713 1.2h-6.16l2.32-26.96h6.76l3.76 9.76c.64 1.6267 1.1866 3.12 1.64 4.48.4533 1.36.7466 2.32.88 2.88l.2.8c.4266-1.76 1.36-4.48 2.8-8.16l3.8-9.76h6.76l2.8 26.96h-6.16l-1-10.44-.52-7.88c-.6934 2-1.6534 4.6267-2.88 7.88l-3.8 10.16h-3.64l-3.76-10.16c-.6134-1.6533-1.1334-3.1333-1.56-4.44-.4267-1.3067-.7067-2.2133-.84-2.72l-.2-.72c0 1.8933-.12 4.52-.36 7.88l-.84 10.44Zm38.4231-8.72h-3.12V28h-6.16V1.04h9.28c2.9866 0 5.4.84 7.24 2.52 1.8666 1.68 2.8 3.81333 2.8 6.4 0 2.96-.9734 5.2533-2.92 6.88-1.92 1.6267-4.2934 2.44-7.12 2.44Zm-.72-13.32h-2.4v8.44h2.04c3.2533 0 4.88-1.48 4.88-4.44 0-2.66667-1.5067-4-4.52-4Z" />
        </g>
    </symbol>

    <symbol id="creative" viewBox="0 0 48 37">
        <g>
            <path fill-rule="evenodd" d="M32.5312 0c-2.1122 0-3.8667 1.57914-4.1715 3.63207L27.0769 4.9302c-2.2327 2.25937-5.5207 3.60826-8.7957 3.60826H9.84375c-1.83328 0-3.39637 1.18979-3.97687 2.84614H5.625C2.52338 11.3846 0 13.9382 0 17.0769c0 3.1388 2.52338 5.6923 5.625 5.6923h.24188c.4244 1.211 1.374 2.1719 2.57062 2.6014v7.3602c0 2.354 1.8926 4.2692 4.2188 4.2692s4.2187-1.9152 4.2187-4.2692v-7.1154h1.4062c3.2749 0 6.5629 1.3489 8.7957 3.6082l1.2828 1.2982c.3048 2.0528 2.0594 3.632 4.1716 3.632 2.3262 0 4.2187-1.9151 4.2187-4.2692V4.26923C36.75 1.91518 34.8575 0 32.5312 0ZM5.625 19.9231c-1.55081 0-2.8125-1.2768-2.8125-2.8462 0-1.5693 1.26169-2.8461 2.8125-2.8461v5.6923Zm7.0312 14.2307c.7755 0 1.4063-.6383 1.4063-1.423v-7.1154H11.25v7.1154c0 .7847.6308 1.423 1.4062 1.423Zm4.2188-11.3846H9.84375c-.77541 0-1.40625-.6384-1.40625-1.423v-8.5385c0-.7847.63084-1.4231 1.40625-1.4231H16.875v11.3846Zm2.8031.0645c3.2042.2948 6.2587 1.5876 8.6344 3.6684V7.65169c-2.3757 2.08083-5.4302 3.37361-8.6343 3.66831l-.0001 11.5137Zm14.2594 7.0509c0 .7847-.6308 1.4231-1.4062 1.4231h-.0001c-.7754 0-1.4062-.6384-1.4062-1.4231V4.26923c0-.78468.6308-1.42308 1.4063-1.42308.7754 0 1.4062.6384 1.4062 1.42308V29.8846ZM44.7756 8.95533c-.5491-.55567-1.4396-.55567-1.9888 0l-2.8125 2.84617c-.5491.5557-.5491 1.4567 0 2.0125.5492.5558 1.4397.5557 1.9888 0l2.8125-2.8462c.5492-.5557.5492-1.45671 0-2.01247ZM42.375 17.0769h4.2188c.7766 0 1.4062.6372 1.4062 1.4231s-.6296 1.4231-1.4062 1.4231H42.375c-.7766 0-1.4062-.6372-1.4062-1.4231s.6296-1.4231 1.4062-1.4231Zm-.4118 6.1092 2.8125 2.8462c.5491.5557.5491 1.4567 0 2.0125-.5491.5557-1.4397.5557-1.9888 0l-2.8125-2.8462c-.5492-.5557-.5492-1.4568 0-2.0125.5492-.5557 1.4397-.5557 1.9888 0Z" clip-rule="evenodd"/>
        </g>
    </symbol>

    <symbol id="about" viewBox="0 0 48 42">
        <g>
            <path fill-rule="evenodd" d="M46.6025 5.60036c-.0029 0-.0058-.00036-.0087-.00036h-12.75V4.2c0-2.31583-1.8926-4.2-4.2188-4.2h-11.25c-2.3262 0-4.2188 1.88417-4.2188 4.2v1.4H1.40625C.62329 5.6 0 6.23875 0 7v30.8C0 40.1158 1.89258 42 4.21875 42H43.7812C46.1074 42 48 40.1158 48 37.8V7.02406c-.0538-.91948-.6218-1.41859-1.3975-1.4237ZM16.9688 4.2c0-.77182.6309-1.4 1.4062-1.4h11.25c.7753 0 1.4062.62818 1.4062 1.4v1.4H16.9688V4.2Zm23.3067 17.2426L44.6426 8.4H3.35742l4.36707 13.0426c.19153.5728.72766.9574 1.33374.9574h7.91057V21c0-.7733.6295-1.4 1.4062-1.4h11.25c.7767 0 1.4062.6267 1.4062 1.4v1.4h7.9106c.6061 0 1.1422-.3846 1.3337-.9574ZM28.2188 22.4v2.8h-8.4376v-2.8h8.4376Zm15.5624 16.8c.7753 0 1.4063-.6282 1.4063-1.4V15.6271l-2.2438 6.7011c-.5749 1.7179-2.1833 2.8718-4.0019 2.8718h-7.9106v1.4c0 .7733-.6295 1.4-1.4062 1.4h-11.25c-.7767 0-1.4062-.6267-1.4062-1.4v-1.4H9.05823c-1.81861 0-3.427-1.1539-4.00196-2.8718L2.8125 15.6271V37.8c0 .7718.63098 1.4 1.40625 1.4H43.7812Z" clip-rule="evenodd"/>
        </g>
    </symbol>

    <symbol id="check" viewBox="0 0 24 22">
        <g>
            <path fill-rule="evenodd" d="M22 11c0-.579-.058-1.143-.144-1.697l-1.866 1.902C19.879 16.072 15.894 20 11 20c-4.962 0-9-4.038-9-9s4.038-9 9-9c1.8 0 3.474.537 4.882 1.45l1.422-1.457C15.518.741 13.347 0 11 0 4.925 0 0 4.925 0 11s4.925 11 11 11 11-4.925 11-11Zm-10.5-.194 9.404-9.639L24 4.263 11.5 17l-6.938-6.71 3.095-3.098 3.843 3.614Z" clip-rule="evenodd"/>
        </g>
    </symbol>

    <symbol id="consulting" viewBox="0 0 64 64">
        <g>
            <path fill-rule="evenodd" d="M63.6318 18.834 50.2427.75879C49.8887.28174 49.3301 0 48.7358 0c-.5942 0-1.1533.28174-1.5063.75879L33.8403 18.834c-.4214.5688-.4863 1.3271-.1674 1.9595.3183.6323.9663 1.0317 1.6743 1.0317h4.8193v9.0625c-.9438-.4863-2.0127-.7627-3.146-.7627h-3.3472c-3.8022 0-6.8955 3.0933-6.8955 6.8955v3.9087c-.9438-.4863-2.0131-.7627-3.146-.7627h-3.3471c-3.8023 0-6.8955 3.0938-6.8955 6.896v3.9082c-.9444-.4858-2.0132-.7627-3.146-.7627H6.89551C3.09326 50.208 0 53.3018 0 57.104v5.021C0 63.1606.83936 64 1.875 64h53.5552c1.0356 0 1.875-.8394 1.875-1.875V21.8252h4.8198c.708 0 1.356-.3994 1.6743-1.0317.3189-.6324.2539-1.3907-.1675-1.9595ZM3.75 57.104c0-1.7344 1.41113-3.146 3.14551-3.146h3.34719c1.7348 0 3.146 1.4116 3.146 3.146v3.146H3.75v-3.146Zm13.3887-10.0415V60.25h9.6386V47.0625c0-1.7349-1.4111-3.146-3.1455-3.146h-3.3471c-1.7349 0-3.146 1.4111-3.146 3.146Zm13.3891 0v-10.042c0-1.7344 1.4112-3.1455 3.1455-3.1455h3.3472c1.7344 0 3.146 1.4111 3.146 3.1455V60.25h-9.6387V47.0625Zm23.0274-27.1123c0-1.0356.8393-1.875 1.875-1.875h2.9726l-9.667-13.0503-9.6665 13.0503h2.9722c1.0352 0 1.875.8394 1.875 1.875V60.25h9.6387V19.9502Z" clip-rule="evenodd"/>  
        </g>
    </symbol>

    <symbol id="planning" viewBox="0 0 64 64">
        <g>
            <path fill-rule="evenodd" d="M32 0C20.9995 0 12.0498 8.94971 12.0498 19.9502c0 6.331 2.9849 12.2388 8.0332 16.0005v1.666c-1.2295 1.0806-2.0078 2.6631-2.0078 4.4248 0 1.5513.6035 2.9639 1.5869 4.0171-.9834 1.0532-1.5869 2.4653-1.5869 4.0166 0 2.6426 1.7485 4.8843 4.1499 5.6284C22.9976 60.4028 27.0854 64 32 64c4.9146 0 9.0029-3.5972 9.7754-8.2964 2.4009-.7446 4.1499-2.9858 4.1499-5.6289 0-1.5508-.6035-2.9634-1.5869-4.0166.9834-1.0532 1.5869-2.4653 1.5869-4.0166 0-1.7617-.7783-3.3442-2.0083-4.4253v-1.6655c5.0483-3.7617 8.0332-9.6695 8.0332-16.0005C51.9502 8.94971 43.0005 0 32 0Zm8.0337 39.8999c1.1807 0 2.1416.9609 2.1416 2.1416 0 1.1812-.9609 2.1421-2.1416 2.1421H23.9668c-1.1812 0-2.1421-.9609-2.1421-2.1421 0-1.1807.9609-2.1416 2.1421-2.1416h16.0669ZM26.1333 55.9668C26.9287 58.4482 29.2578 60.25 32 60.25s5.0718-1.8013 5.8667-4.2832H26.1333Zm13.9004-3.75H23.9668c-1.1812 0-2.1421-.9609-2.1421-2.1416 0-1.1812.9609-2.1416 2.1421-2.1416h16.0669c1.1807 0 2.1416.9604 2.1416 2.1416 0 1.1807-.9609 2.1416-2.1416 2.1416Zm.1333-17.2363c0-.6255.312-1.21.832-1.5581 4.5088-3.0186 7.2012-8.0547 7.2012-13.4722C48.2002 11.0171 40.9326 3.75 32 3.75c-8.9326 0-16.2002 7.2671-16.2002 16.2002 0 5.4175 2.6924 10.4536 7.2012 13.4722.52.3481.832.9326.832 1.5581v1.1728l.0442-.0012h.0002c.0297-.0008.0594-.0017.0894-.0017h2.1416v-7.3901l-2.6924-2.6924c-.7324-.7325-.7324-1.9195 0-2.6519.7324-.7319 1.9194-.7319 2.6514 0l3.2417 3.2417c.3515.3516.5493.8286.5493 1.3257v8.1665h4.2832v-8.1665c0-.4976.1978-.9741.5493-1.3257l3.2417-3.2417c.732-.7324 1.9195-.7324 2.6514 0 .7324.7324.7324 1.9194 0 2.6519l-2.6924 2.6924v7.3896h2.1421c.0278 0 .0555.001.0833.0019.0167.0006.0333.0012.05.0015v-1.1728ZM7.7666 19.9502c0-1.0356-.83935-1.875-1.875-1.875H1.875c-1.03565 0-1.875.8394-1.875 1.875 0 1.0352.83935 1.875 1.875 1.875h4.0166c1.03565 0 1.875-.8398 1.875-1.875Zm50.3418-1.875h4.0166c1.0356 0 1.875.8394 1.875 1.875 0 1.0352-.8394 1.875-1.875 1.875h-4.0166c-1.0352 0-1.875-.8398-1.875-1.875 0-1.0356.8398-1.875 1.875-1.875ZM8.45166 31.3804l-3.47852 2.0083c-.89648.518-1.20361 1.6645-.68603 2.5615.34717.6016.97754.9375 1.62549.9375.31787 0 .64062-.0806.93554-.2515l3.47856-2.0078c.8969-.518 1.2041-1.6645.6865-2.5615s-1.66457-1.2041-2.56154-.6865ZM55.5479 8.52002c-.2955.17041-.6177.25146-.9356.25146-.6479 0-1.2783-.33642-1.6255-.93798-.518-.89649-.2104-2.04346.6861-2.56104l3.479-2.0083c.8964-.51807 2.0429-.21094 2.561.68604.5181.89697.2104 2.04345-.686 2.56103l-3.479 2.00879Zm3.4785 24.86868-3.4785-2.0078c-.897-.5176-2.044-.2105-2.5616.6865-.5175.8965-.2099 2.0434.6866 2.561l3.479 2.0078c.2949.1704.6171.2515.9355.2515.648 0 1.2783-.3364 1.6255-.938.5181-.8965.2104-2.0435-.6865-2.561ZM6.84863 3.26416l3.47847 2.00781c.8965.51807 1.2041 1.66455.6866 2.56153-.3477.60156-.9776.93798-1.626.93798-.31788 0-.64014-.08105-.93555-.25146l-3.47852-2.0083c-.89648-.51758-1.2041-1.66406-.68603-2.56104.51758-.89697 1.66406-1.20459 2.56103-.68652Z" clip-rule="evenodd"/> 
        </g>
    </symbol>

    <symbol id="support" viewBox="0 0 56 64">
        <g>
            <path fill-rule="evenodd" d="M29.8567 0C15.5478 0 3.88684 11.4795 3.71532 25.6567l-3.1123 9.0191c-.85463 2.4775-.7986 4.6582.15381 5.9834.57106.7939 1.45222 1.249 2.4184 1.249h.53813v3.146c0 3.8022 3.11378 6.8955 6.94064 6.8955 1.7461 0 3.1664 1.4116 3.1664 3.146v2.0083c0 3.8022 3.1133 6.896 6.9402 6.896h14.1496c3.8269 0 6.9406-3.0938 6.9406-6.896v-8.0478c4.0083-2.0582 7.413-5.1089 9.8972-8.8804C54.5296 35.9526 56 31.0425 56 25.9746 56 11.6523 44.2722 0 29.8567 0Zm9.3192 46.1812c-.6703.3056-1.0998.9716-1.0998 1.7041v9.2187c0 1.7349-1.4203 3.146-3.1659 3.146H20.7606c-1.7457 0-3.1659-1.4111-3.1659-3.146v-2.0083c0-3.8022-3.1138-6.8955-6.9407-6.8955-1.74608 0-3.16636-1.4116-3.16636-3.146v-5.021c0-1.0352-.84479-1.875-1.88714-1.875H3.78462c-.03195-.4185.01327-1.1772.38873-2.2661l3.21257-9.3091a1.87054 1.87054 0 0 0 .10172-.6079C7.48764 13.7202 17.5224 3.75 29.8567 3.75c12.3342 0 22.369 9.9702 22.369 22.2251 0 8.6587-5.1223 16.5903-13.0498 20.2061Zm6.6252-23.9424c-.2222-.6787-.8129-1.1734-1.5235-1.2759l-8.7949-1.2695-3.9335-7.9185c-.318-.6401-.974-1.0454-1.6925-1.0454-.7185 0-1.3741.4053-1.6921 1.0454l-3.9335 7.9185-8.7948 1.2695c-.7112.1025-1.3014.5972-1.5235 1.2759-.2222.6792-.0369 1.4243.4772 1.9223l6.3642 6.1641-1.5024 8.7031c-.1214.7036.1696 1.4146.7509 1.834.5809.4194 1.3515.4746 1.9874.1426l7.8666-4.1089 7.8665 4.1089c.2762.1445.578.2158.8782.2158h.0074c1.0399-.0029 1.8822-.8413 1.8822-1.875 0-.144-.0162-.2842-.0472-.4189l-1.4846-8.6016 6.3642-6.1641c.5145-.498.6993-1.2431.4777-1.9223Zm-10.1872 6.0888c-.4447.4307-.6477 1.0513-.5425 1.6597l1.0237 5.9307-5.3602-2.8003a1.89682 1.89682 0 0 0-.8782-.2154c-.3013 0-.603.0718-.8782.2154l-5.3602 2.8003 1.0237-5.9307c.1051-.6084-.0978-1.229-.5426-1.6597l-4.3365-4.1997 5.9927-.8652c.6148-.0889 1.146-.4722 1.4212-1.0259l2.6799-5.3955 2.6803 5.3955c.2752.5537.8065.937 1.4213 1.0259l5.9926.8652-4.337 4.1997Z" clip-rule="evenodd"/>   
        </g>
    </symbol>

    <symbol id="cooperation" viewBox="0 0 64 64">
        <g>
            <path fill-rule="evenodd" d="m63.4507 60.7993-7.5366-7.5371C61.1406 47.3984 64 39.9194 64 32c0-6.1606-1.7334-12.0806-5.0259-17.2217l4.4766-4.4765c.4595-.46.6484-1.12455.499-1.75688-.1494-.63232-.6152-1.14258-1.2319-1.34765l-4.4356-1.47901-1.4785-4.43603c-.206-.61621-.7158-1.08252-1.3481-1.23194-.6324-.14892-1.2969.03955-1.7569.49903l-4.4765 4.47705C44.0806 1.73389 38.1602 0 32 0 23.4526 0 15.4165 3.32861 9.37256 9.37256 3.32861 15.4165 0 23.4526 0 32c0 7.9194 2.85938 15.3984 8.08643 21.2622L.54932 60.7993c-.73242.7319-.73242 1.9195 0 2.6514.3662.3662.8457.5493 1.32568.5493.47998 0 .95996-.1831 1.32568-.5493l7.53712-7.5371C16.6016 61.1411 24.0806 64 32 64c7.9194 0 15.3984-2.8594 21.2622-8.0864l7.5371 7.5371c.3662.3662.8457.5493 1.3257.5493.48 0 .96-.1831 1.3257-.5493.7324-.7319.7324-1.919 0-2.6514ZM54.2056 5.34619l.8154 2.44678c.1865.56006.626.99951 1.1855 1.18603l2.4473.81592-4.1357 4.13578-3.3365-1.1123-1.1123-3.33647 4.1363-4.13574ZM32 40.1665c4.5029 0 8.167-3.6636 8.167-8.1665 0-1.5737-.4487-3.0439-1.2232-4.292l-5.6181 5.6177c-.3657.3662-.8457.5493-1.3257.5493-.48 0-.96-.1831-1.3257-.5493-.7324-.7319-.7324-1.919 0-2.6514l5.6177-5.6181c-1.2481-.7745-2.7183-1.2227-4.292-1.2227-4.5029 0-8.1665 3.6636-8.1665 8.1665 0 4.5029 3.6636 8.1665 8.1665 8.1665Zm6.9922-17.8101c-1.9653-1.4287-4.3818-2.2729-6.9922-2.2729-6.5708 0-11.9165 5.3457-11.9165 11.9165 0 6.5708 5.3457 11.9165 11.9165 11.9165 6.5708 0 11.917-5.3457 11.917-11.9165 0-2.6104-.8442-5.0264-2.2734-6.9922l4.4829-4.4824c2.5503 3.1338 4.082 7.1284 4.082 11.4746 0 10.04-8.1685 18.2085-18.2085 18.2085-10.04 0-18.208-8.1685-18.208-18.2085 0-10.04 8.168-18.2085 18.208-18.2085 4.3462 0 8.3408 1.5317 11.4751 4.082l-4.4829 4.4829ZM32 3.75C16.4229 3.75 3.75 16.4229 3.75 32S16.4229 60.25 32 60.25 60.25 47.5771 60.25 32c0-5.1626-1.3774-10.1333-4.002-14.5054-.3442.2969-.7792.4566-1.2236.4566-.1987 0-.3984-.0318-.5928-.0962l-4.226-1.4092-1.4175 1.4175C52.0122 21.686 53.9585 26.6196 53.9585 32c0 12.1079-9.8506 21.9585-21.9585 21.9585S10.042 44.1079 10.042 32 19.8921 10.0415 32 10.0415c5.3804 0 10.314 1.9463 14.1367 5.1704l1.4175-1.4175-1.4092-4.22555c-.2099-.62989-.0703-1.31983.3589-1.81739C42.1323 5.12744 37.1621 3.75 32 3.75Z" clip-rule="evenodd"/>
        </g>
    </symbol>

    <symbol id="bg-blue" viewBox="0 0 513 697">
        <g>
            <path d="M-212 .91847s596.617 8.9569 683.096 96.72773c86.479 87.7708 14.657 243.0378 0 289.5658-14.657 46.527 95.648 223.469-42.673 297.177C365.905 717.702-212 669.481-212 669.481V.91847Z"/>
        </g>
    </symbol>

    <symbol id="bg-yellow" viewBox="0 0 569 832">
        <g>
            <path d="M166.18-85.1249c.929-1.7221 1.393-2.5831 2.106-3.2515.618-.5801 1.396-1.0445 2.2-1.3136.927-.31 1.94-.31 3.967-.31H834.4c3.36 0 5.04 0 6.324.654 1.129.5752 2.047 1.4931 2.622 2.6221.654 1.2835.654 2.9636.654 6.3239v846.322c0 2.466 0 3.699-.427 4.77-.371.931-1 1.789-1.776 2.423-.893.729-2.009 1.081-4.24 1.785-35.173 11.096-208.667 62.58-379.476 55.809-164.38-6.517-235.034-57.888-320.136-94.283C58.1927 702.32 15.5995 695.009 2.97976 613.808-14.5147 501.24 49.7697 487.873 72.4587 357.084c20.2591-116.782-8.3429-123.579 16.4173-238.418 20.388-94.5607 65.826-182.5076 77.304-203.7909Z"/> 
        </g>
    </symbol>

    <symbol id="features" viewBox="0 0 36 48">
        <g>
            <path fill-rule="evenodd" d="M27 6h6c1.653 0 3 1.347 3 3v36c0 1.653-1.347 3-3 3H3c-1.653 0-3-1.347-3-3V9c0-1.653 1.347-3 3-3h6V4.5c0-.828.672-1.5 1.5-1.5h3.255c.621-1.746 2.289-3 4.245-3s3.624 1.254 4.245 3H25.5c.828 0 1.5.672 1.5 1.5V6ZM15 6h-3v3h12V6h-3c-.828 0-1.5-.672-1.5-1.5S18.828 3 18 3s-1.5.672-1.5 1.5S15.828 6 15 6ZM3 45V9h6v1.5c0 .828.672 1.5 1.5 1.5h15c.828 0 1.5-.672 1.5-1.5V9h6v36H3Zm14.562-26.559c-.585-.585-1.536-.588-2.124-.003L10.5 23.379l-1.938-1.941c-.585-.585-1.536-.585-2.121 0s-.585 1.536 0 2.121l3 3c.291.294.675.441 1.059.441.384 0 .768-.147 1.062-.438l6-6c.585-.585.585-1.536 0-2.121Zm0 12c-.585-.585-1.536-.588-2.124-.003L10.5 35.379l-1.938-1.938c-.585-.585-1.536-.585-2.121 0s-.585 1.536 0 2.121l3 3c.291.291.675.438 1.059.438.384 0 .768-.147 1.062-.438l6-6c.585-.585.585-1.536 0-2.121ZM21 22.5c0-.828.672-1.5 1.5-1.5h6c.828 0 1.5.672 1.5 1.5s-.672 1.5-1.5 1.5h-6c-.828 0-1.5-.672-1.5-1.5Zm9 12c0-.828-.672-1.5-1.5-1.5h-6c-.828 0-1.5.672-1.5 1.5s.672 1.5 1.5 1.5h6c.828 0 1.5-.672 1.5-1.5Z" clip-rule="evenodd"/>
        </g>
    </symbol>

    <symbol id="modern" viewBox="0 0 24 23">
        <g>
            <path fill-rule="evenodd" d="M8.332 7.62569 12 0l3.668 7.6267L24 8.78546l-6.064 5.87144 1.48 8.3421L12 19.0028 4.584 23l1.48-8.3421L0 8.78546l8.332-1.15977Zm6.003 1.84899L12 4.62096 9.665 9.47468l-5.305.73862 3.861 3.7382-.942 5.3102L12 16.7175l4.721 2.5432-.942-5.3102 3.861-3.7382-5.305-.73762Z" clip-rule="evenodd"/> 
        </g>
    </symbol>

    <symbol id="service" viewBox="0 0 48 48">
        <g>
            <path fill-rule="evenodd" d="M47.7955 1.44687C47.723.79318 47.207.27683 46.5529.20432 35.4237-1.03165 25.9367 3.42002 18.1981 11.3855c-2.2146 2.2796-4.1355 4.6926-5.7751 7.0213-2.775-.1127-5.85175 1.1426-8.03305 3.3238L.41189 25.7084c-.4501.45-.54167 1.1466-.2234 1.6977.31825.5512.96686.8196 1.58213.6552.92292-.248 2.42266-.5362 3.86343-.6032.52665-.0245.9643-.0168 1.32797.011-.39537.7603-.74913 1.4651-1.03895 2.0425l-.00007.0001-.00027.0006-.00007.0001-.00003.0001c-.35347.7042-.61175 1.2187-.73429 1.4133-.34939.5559-.26845 1.2792.19594 1.7435l2.30179 2.3016c-3.34996 4.5685-3.40526 6.9083-3.39354 7.2397.02453.702.57206 1.3597 1.47886 1.3597.78521 0 3.03719-.3332 7.13681-3.3775l2.4212 2.421c.4677.4676 1.1983.546 1.755.1886.2292-.1474.8073-.4417 1.5819-.836.5053-.2572 1.0942-.557 1.7245-.8863.0264 1.1898-.1351 2.937-.4856 5.3053-.1993 1.3432 1.4338 2.1518 2.3856 1.2004l3.9781-3.9778c2.0513-2.0511 3.2408-5.0976 3.1529-7.9555 2.4534-1.7143 5.0057-3.7365 7.3888-6.0733 7.8902-7.7369 12.2052-17.1515 10.9849-28.13233Zm-2.6903 1.44727c.2245 3.03223-.0151 5.97144-.7127 8.81576-1.7327-.5456-3.4265-1.6175-4.9563-3.14681-1.5353-1.53553-2.6094-3.23621-3.1529-4.97498 2.8434-.68738 5.7847-.92029 8.8219-.69397ZM6.37861 23.7195l-.92804.9283c.98627-.0487 2.01027-.011 2.93135.1923.59623-1.0609 1.2723-2.2105 2.03078-3.4142-1.45176.3633-2.91158 1.1715-4.03409 2.2936Zm1.94758 7.2745.00047-.0009h.00002l.00001-.0001h.00001c.26816-.5341.60767-1.2104 1.13342-2.2037l1.85128 1.8516c-.6888.739-1.3107 1.441-1.87106 2.1064L8.112 31.4194c.06706-.1323.13721-.272.21306-.4231l.00113-.0023Zm9.89141-1.3503c-1.2207.0263-2.2033.2135-3.228 1.2378-4.322 4.3216-6.27697 7.3506-7.15996 9.1747 1.78979-.8702 4.78266-2.8199 9.14896-7.1858 1.0214-1.0214 1.2122-2.0373 1.239-3.2267Zm-1.6463 10.2345-1.4503-1.4506c.6622-.5625 1.3621-1.1861 2.1004-1.8776l1.9707 1.9706c-.8974.4791-1.4326.7513-1.9374 1.0081l-.0003.0001-.0003.0002-.0003.0001c-.2238.1138-.4416.2246-.6825.3491Zm6.5824 2.867 1.1258-1.1261c1.05-1.0495 1.8041-2.4931 2.1396-3.9799-1.1771.7386-2.3004 1.3989-3.3346 1.9812.1289.7668.1604 1.7607.0692 3.1248Zm-1.4012-5.6418-2.5216-2.5217c1.8009-1.9814 1.7989-3.8932 1.7966-6.1019l-.0002-.2405c0-.7768-.6295-1.4063-1.4063-1.4063-.1168 0-.2333-.0003-.3497-.0007-2.0345-.0059-4.0015-.0116-5.9932 1.7973l-2.408-2.4078C17.4455 14.6924 25.046 7.39304 33.5856 4.38718c.676 2.18738 1.9919 4.29493 3.8619 6.16482 1.8612 1.8614 3.959 3.1739 6.137 3.8525-3.0236 8.4921-10.3216 16.0873-21.832 22.6989Zm13.706-24.5629c-2.742-2.74145-7.2035-2.74145-9.9452 0-2.7416 2.7418-2.7416 7.203 0 9.9445 2.7417 2.7414 7.2032 2.7418 9.9452 0 2.7416-2.7415 2.7416-7.2027 0-9.9445Zm-1.989 7.9556c-1.6452 1.645-4.3224 1.645-5.9671 0-1.6452-1.645-1.6452-4.3217 0-5.9667 1.6447-1.6447 4.3216-1.645 5.9671 0 1.6451 1.645 1.6451 4.3217 0 5.9667Z" clip-rule="evenodd"/>
        </g>
    </symbol>

    <symbol id="clients" viewBox="0 0 32 27">
        <g>
            <path fill-rule="evenodd" d="M13 7.42489h6c1.2866 0 2.3333-1.05971 2.3333-2.36241v-.33741h7c.9187 0 1.6667.75715 1.6667 1.68733v16.875c0 .9302-.748 1.6876-1.6667 1.6876H3.66675C2.74805 24.975 2 24.2176 2 23.2874V6.4124c0-.93018.74805-1.68733 1.66675-1.68733h6.99995v.33741c0 1.3027 1.0467 2.36241 2.3333 2.36241Zm6.3333-2.36241V2.36241c0-.18613-.1492-.33742-.3333-.33742h-6c-.1841 0-.3333.15129-.3333.33742v2.70007c0 .18639.1492.33742.3333.33742h6c.1841 0 .3333-.15103.3333-.33742Zm-8.6666-2.70007v.33766H3.66675C1.64404 2.70007 0 4.36442 0 6.4124v16.875C0 25.3354 1.64404 27 3.66675 27H28.3333C30.356 27 32 25.3354 32 23.2874V6.4124c0-2.04798-1.644-3.71233-3.6667-3.71233h-7v-.33766C21.3333 1.05971 20.2866 0 19 0h-6c-1.2866 0-2.3333 1.05971-2.3333 2.36241ZM10 16.2c-1.8374 0-3.33325-1.5148-3.33325-3.375 0-1.8603 1.49585-3.37511 3.33325-3.37511 1.8374 0 3.3333 1.51481 3.3333 3.37511 0 1.8602-1.4959 3.375-3.3333 3.375Zm0-4.7251c-.73462 0-1.33325.6061-1.33325 1.3501 0 .7438.59863 1.35 1.33325 1.35.7346 0 1.3333-.6062 1.3333-1.35 0-.744-.5987-1.3501-1.3333-1.3501ZM15 22.95c-.552 0-1-.4536-1-1.0125v-.6751c0-.9301-.748-1.6875-1.6667-1.6875H7.66675C6.74805 19.5749 6 20.3323 6 21.2624v.6751c0 .5589-.448 1.0125-1 1.0125s-1-.4536-1-1.0125v-.6751c0-2.0479 1.64404-3.7125 3.66675-3.7125h4.66655c2.0227 0 3.6667 1.6646 3.6667 3.7125v.6751c0 .5589-.448 1.0125-1 1.0125Zm4.6667-10.8H27c.552 0 1-.4536 1-1.0125s-.448-1.0125-1-1.0125h-7.3333c-.552 0-1 .4536-1 1.0125s.448 1.0125 1 1.0125ZM27 17.5499h-7.3333c-.552 0-1-.4536-1-1.0125s.448-1.0125 1-1.0125H27c.552 0 1 .4536 1 1.0125s-.448 1.0125-1 1.0125ZM19.6667 22.95H27c.552 0 1-.4536 1-1.0125s-.448-1.0125-1-1.0125h-7.3333c-.552 0-1 .4536-1 1.0125s.448 1.0125 1 1.0125Z" clip-rule="evenodd"/>
        </g>
    </symbol>

    <symbol id="successful" viewBox="0 0 32 29">
        <g>
            <path fill-rule="evenodd" d="M30.7475 26.5833H2.42425V1.20834C2.42425.54093 1.88162 0 1.21212 0S0 .54093 0 1.20834V27.7917C0 28.4591.54262 29 1.21212 29H30.7475c.6695 0 1.2121-.5409 1.2121-1.2083 0-.6674-.5426-1.2084-1.2121-1.2084ZM27.8939 5.59863H21.697c-.6695 0-1.2122-.54093-1.2122-1.20833 0-.66741.5427-1.20834 1.2122-1.20834h9.0908c.6695 0 1.2122.54093 1.2122 1.20834v9.0625c0 .6674-.5426 1.2087-1.2121 1.2087s-1.2121-.5413-1.2121-1.2083V7.33955l-7.9932 7.93615c-.4743.4701-1.2392.4697-1.7123-.002l-2.6582-2.6494-9.93092 9.8994c-.23632.2361-.54707.3541-.85694.3541-.31031 0-.62062-.118-.857-.3541-.47356-.4716-.47356-1.2369 0-1.7085L16.3551 10.061c.4736-.47213 1.2404-.4717 1.7139 0l2.6598 2.6514 7.1651-7.11377Z" clip-rule="evenodd"/>
        </g>
    </symbol>

    <symbol id="testimonials" viewBox="0 0 48 32">
        <g>
           <path fill-rule="evenodd" d="M7.96854 2.70004V0H48v32H7.96844v-2.7294H4.93516c-1.73775 0-3.186-1.2544-3.44353-2.9824L.03859 16.5376c-.15056-1.0101.14372-2.0329.80738-2.8062.65044-.7579 1.58953-1.1972 2.58319-1.2124l-.00028-.0014h.66159c-.68831-1.0217-1.09069-2.2528-1.09069-3.57645 0-3.04376 2.12822-5.59631 4.96876-6.24111ZM5.81228 8.94115c0 1.47085.88932 2.73685 2.15626 3.28545V5.6557c-1.26694.54861-2.15626 1.81458-2.15626 3.28545Zm2.15626 6.40005v5.2639l-1.08535-5.2639h1.08535ZM4.93525 26.447h3.03338v-2.6354H5.75772L4.01116 15.341h-.52894c-.26559 0-.43069.1462-.50541.2334-.07575.0882-.19678.2764-.15665.5455l1.45303 9.7505c.04988.3342.32822.5767.66206.5767v-.0001Zm40.25225 2.7296H10.781V2.82352h34.4065V29.1766ZM16.4661 7.92468c.0699.04518.14.07294.21.08283.07.01007.1201.01505.1501.01505v2.00274c-.3 0-.6251-.03004-.975-.09037-.3501-.06014-.67-.16555-.96-.31613-.2901-.15069-.5324-.35624-.7276-.61742-.195-.26098-.2925-.59717-.2925-1.00893V5.8541h2.31v1.56611c.0099.14071.0425.24847.0975.32377.0549.07529.1175.13553.1875.1807Zm3.945.08283c-.07-.00989-.1401-.03765-.2099-.08283-.0701-.04517-.1326-.10541-.1875-.1807-.0551-.0753-.0877-.18306-.0975-.32377V5.8541h-2.3101v2.13835c0 .41176.0975.74795.2925 1.00893.1951.26118.4375.46673.7276.61742.29.15058.6099.25599.96.31613.3499.06033.675.09037.975.09037V8.02256c-.03 0-.0801-.00498-.1501-.01505ZM37.335 22.2606c.2899.1507.5325.3592.7277.625.195.266.2925.6.2925 1.0014v2.1383h-2.3101v-1.5661c-.01-.1302-.0427-.2357-.0975-.3162-.055-.0802-.1177-.1431-.1875-.1882-.07-.0452-.1402-.0728-.21-.0829-.07-.0098-.12-.0149-.15-.0149v-2.0029c.3 0 .6248.0301.975.0904.3499.0601.6697.1656.9599.3161Zm4.4626.625c-.1951-.2658-.4377-.4743-.7276-.625-.2903-.1505-.6101-.256-.96-.3161-.3502-.0603-.675-.0904-.975-.0904v2.0029c.03 0 .08.0051.1501.0149.0698.0101.1399.0377.2099.0829.0698.0451.1325.108.1875.1882.0548.0805.0875.186.0975.3162v1.5661h2.3101V23.887c0-.4014-.0975-.7354-.2925-1.0014Zm.2927-14.97965H25.5002v2.82355h16.5901V7.90595ZM13.8714 14.4943h28.219v2.8235h-28.219v-2.8235Zm16.5901 6.5882H13.8714v2.8235h16.5901v-2.8235Z" clip-rule="evenodd"/> 
        </g>
    </symbol>


    <symbol id="marketing" viewBox="0 0 48 48">
        <g>
           <path fill-rule="evenodd" d="M47.7955 1.44687C47.723.79318 47.207.27683 46.5529.20432 35.4237-1.03165 25.9367 3.42002 18.1981 11.3855c-2.2146 2.2796-4.1355 4.6926-5.7751 7.0213-2.775-.1127-5.85175 1.1426-8.03305 3.3238L.41189 25.7084c-.4501.45-.54167 1.1466-.2234 1.6977.31825.5512.96686.8196 1.58213.6552.92292-.248 2.42266-.5362 3.86343-.6032.52665-.0245.9643-.0168 1.32797.011-.39537.7603-.74913 1.4651-1.03895 2.0425l-.00007.0001-.00027.0006-.00007.0001-.00003.0001c-.35347.7042-.61175 1.2187-.73429 1.4133-.34939.5559-.26845 1.2792.19594 1.7435l2.30179 2.3016c-3.34996 4.5685-3.40526 6.9083-3.39354 7.2397.02453.702.57206 1.3597 1.47886 1.3597.78521 0 3.03719-.3332 7.13681-3.3775l2.4212 2.421c.4677.4676 1.1983.546 1.755.1886.2292-.1474.8073-.4417 1.5819-.836.5053-.2572 1.0942-.557 1.7245-.8863.0264 1.1898-.1351 2.937-.4856 5.3053-.1993 1.3432 1.4338 2.1518 2.3856 1.2004l3.9781-3.9778c2.0513-2.0511 3.2408-5.0976 3.1529-7.9555 2.4534-1.7143 5.0057-3.7365 7.3888-6.0733 7.8902-7.7369 12.2052-17.1515 10.9849-28.13233Zm-2.6903 1.44727c.2245 3.03223-.0151 5.97144-.7127 8.81576-1.7327-.5456-3.4265-1.6175-4.9563-3.14681-1.5353-1.53553-2.6094-3.23621-3.1529-4.97498 2.8434-.68738 5.7847-.92029 8.8219-.69397ZM6.37861 23.7195l-.92804.9283c.98627-.0487 2.01027-.011 2.93135.1923.59623-1.0609 1.2723-2.2105 2.03078-3.4142-1.45176.3633-2.91158 1.1715-4.03409 2.2936Zm1.94758 7.2745.00047-.0009h.00002l.00001-.0001h.00001c.26816-.5341.60767-1.2104 1.13342-2.2037l1.85128 1.8516c-.6888.739-1.3107 1.441-1.87106 2.1064L8.112 31.4194c.06706-.1323.13721-.272.21306-.4231l.00113-.0023Zm9.89141-1.3503c-1.2207.0263-2.2033.2135-3.228 1.2378-4.322 4.3216-6.27697 7.3506-7.15996 9.1747 1.78979-.8702 4.78266-2.8199 9.14896-7.1858 1.0214-1.0214 1.2122-2.0373 1.239-3.2267Zm-1.6463 10.2345-1.4503-1.4506c.6622-.5625 1.3621-1.1861 2.1004-1.8776l1.9707 1.9706c-.8974.4791-1.4326.7513-1.9374 1.0081l-.0003.0001-.0003.0002-.0003.0001c-.2238.1138-.4416.2246-.6825.3491Zm6.5824 2.867 1.1258-1.1261c1.05-1.0495 1.8041-2.4931 2.1396-3.9799-1.1771.7386-2.3004 1.3989-3.3346 1.9812.1289.7668.1604 1.7607.0692 3.1248Zm-1.4012-5.6418-2.5216-2.5217c1.8009-1.9814 1.7989-3.8932 1.7966-6.1019l-.0002-.2405c0-.7768-.6295-1.4063-1.4063-1.4063-.1168 0-.2333-.0003-.3497-.0007-2.0345-.0059-4.0015-.0116-5.9932 1.7973l-2.408-2.4078C17.4455 14.6924 25.046 7.39304 33.5856 4.38718c.676 2.18738 1.9919 4.29493 3.8619 6.16482 1.8612 1.8614 3.959 3.1739 6.137 3.8525-3.0236 8.4921-10.3216 16.0873-21.832 22.6989Zm13.706-24.5629c-2.742-2.74145-7.2035-2.74145-9.9452 0-2.7416 2.7418-2.7416 7.203 0 9.9445 2.7417 2.7414 7.2032 2.7418 9.9452 0 2.7416-2.7415 2.7416-7.2027 0-9.9445Zm-1.989 7.9556c-1.6452 1.645-4.3224 1.645-5.9671 0-1.6452-1.645-1.6452-4.3217 0-5.9667 1.6447-1.6447 4.3216-1.645 5.9671 0 1.6451 1.645 1.6451 4.3217 0 5.9667Z" clip-rule="evenodd"/>
        </g>
    </symbol>

    <symbol id="quote" viewBox="0 0 48 36">
        <g>
            <path fill-rule="evenodd" d="M20 0C7.784 2.412 0 13.168 0 23.45 0 31.39 5.572 36 11.602 36 16.832 36 22 32.406 22 26.042c0-5.204-3.81-9.514-8.792-10.298.434-4.008 4.33-9.822 8.76-11.492L20 0Zm26 0C33.784 2.412 26 13.168 26 23.45 26 31.39 31.572 36 37.602 36 42.832 36 48 32.406 48 26.042c0-5.204-3.81-9.514-8.792-10.298.434-4.008 4.33-9.822 8.76-11.492L46 0Z" clip-rule="evenodd"/> 
        </g>
    </symbol>

    <symbol id="fb" viewBox="0 0 10 16">
        <g>
            <path fill-rule="evenodd" d="M2.66667 5.33333H0V8h2.66667v8h4V8h2.42666l.24-2.66667H6.66667V4.22267c0-.63734.128-.88934.744-.88934h1.92266V0H6.128C3.73067 0 2.66667 1.056 2.66667 3.07733v2.256Z"/>
        </g>
    </symbol>

    <symbol id="twitter" viewBox="0 0 16 14">
        <g>
            <path d="M16 1.54c-.588.26133-1.2213.43733-1.8853.51733.6786-.40666 1.1973-1.04933 1.444-1.816-.6347.376-1.3374.64934-2.0854.796C12.876.39867 12.0213 0 11.0787 0 8.95867 0 7.40133 1.97733 7.88 4.03067c-2.72667-.13734-5.14667-1.444-6.76533-3.42934-.86 1.47467-.44534 3.40534 1.016 4.38267-.53734-.01733-1.04267-.16533-1.48534-.41067-.036 1.52 1.05467 2.94267 2.63334 3.26a3.28966 3.28966 0 0 1-1.48267.056c.41733 1.304 1.632 2.25197 3.06667 2.27867C3.48 11.2507 1.74267 11.7347 0 11.5293c1.45333.932 3.17733 1.4747 5.03067 1.4747 6.09603 0 9.53863-5.148 9.33063-9.76533C15.004 2.77733 15.56 2.19867 16 1.54Z"/>
        </g>
    </symbol>

    <symbol id="inst" viewBox="0 0 16 16">
        <g>
            <path fill-rule="evenodd" d="M8 0C5.82667 0 5.556.00933 4.70133.04933 1.79467.18267.18133 1.79467.048 4.70133.00933 5.556 0 5.828 0 8c0 2.1733.00933 2.4453.048 3.2987.13333 2.9053 1.74667 4.52 4.65333 4.6533C5.556 15.9907 5.82667 16 8 16c2.1733 0 2.4453-.0093 3.3-.048 2.9013-.1333 4.5213-1.7453 4.652-4.6533C15.9907 10.4453 16 10.1733 16 8c0-2.172-.0093-2.444-.048-3.29867-.1307-2.90266-1.7453-4.52-4.652-4.652C10.4453.00933 10.1733 0 8 0Zm0 1.44267c2.136 0 2.3893.008 3.2333.04666 2.1694.09867 3.18 1.12667 3.28 3.27867.0374.844.0454 1.096.0454 3.232s-.008 2.3893-.0454 3.232c-.1 2.1507-1.1093 3.1813-3.28 3.28-.844.0373-1.096.0467-3.2333.0467-2.136 0-2.38933-.008-3.232-.0467-2.17333-.1-3.18-1.132-3.28-3.28-.03733-.8427-.04667-1.096-.04667-3.232s.00934-2.38933.04667-3.232c.09867-2.15333 1.10933-3.18133 3.28-3.28.84267-.03867 1.096-.04533 3.232-.04533ZM3.892 8c0-2.26933 1.84-4.108 4.108-4.108S12.108 5.732 12.108 8c0 2.2693-1.84 4.108-4.108 4.108S3.892 10.2693 3.892 8ZM8 10.6667c-1.47333 0-2.66667-1.19337-2.66667-2.6667 0-1.472 1.19334-2.66667 2.66667-2.66667 1.472 0 2.668 1.19334 2.668 2.66667 0 1.47333-1.196 2.6667-2.668 2.6667Zm3.3093-6.93603c0-.53067.4307-.96.96-.96.532 0 .9614.42933.9614.96 0 .53066-.4307.96-.9614.96-.5306 0-.96-.43067-.96-.96Z" clip-rule="evenodd"/>
        </g>
    </symbol>
</svg>